#!OML:ASF E:\motion texture\Top Level 1\Subject 1\Session 1\male.ASF
:FULLY-SPECIFIED
:DEGREES
528
root -7.28767 18.0271 7.6964 -522.7 -87.3474 527.711
lowerback 1.36807 -4.7693 -1.04929
upperback -0.470981 -6.47878 6.21355
thorax -0.409129 -3.30593 7.11367
lowerneck 3.2147 -17.7086 -18.099
upperneck 17.0391 -30.3116 20.5784
head 11.0325 -14.7767 6.00881
rclavicle 2.78299e-015 2.06736e-014
rhumerus -19.5842 13.5066 -83.2607
rradius 51.3267
rwrist 9.2908
rhand -12.6787 -19.086
rfingers 7.12502
rthumb 13.4029 -48.6349
lclavicle 2.78299e-015 2.06736e-014
lhumerus -19.3301 -15.0863 96.4833
lradius 54.2536
lwrist -27.9083
lhand -12.9129 11.1174
lfingers 7.12502
lthumb 13.1771 40.681
rfemur -30.4459 -1.69482 16.299
rtibia 25.047
rfoot -5.21051 -13.2741
rtoes 3.91157
lfemur -1.6371 -3.03721 -18.9112
ltibia 25.6411
lfoot -11.4559 -3.56791
ltoes -22.9178
529
root -7.42944 18.0221 7.65528 -522.84 -87.5279 527.892
lowerback 1.30759 -4.75346 -1.09618
upperback -0.49967 -6.45358 6.1228
thorax -0.413748 -3.28995 7.03981
lowerneck 3.20678 -17.7099 -18.0937
upperneck 17.0005 -30.2783 20.5629
head 11.0083 -14.7631 6.00944
rclavicle 7.95139e-015 1.11319e-014
rhumerus -19.6796 13.3536 -83.1496
rradius 51.5397
rwrist 9.25961
rhand -12.7776 -19.1514
rfingers 7.12502
rthumb 13.3076 -48.7065
lclavicle 7.95139e-015 1.11319e-014
lhumerus -19.6476 -15.0578 96.6478
lradius 53.7645
lwrist -27.857
lhand -12.8633 11.0448
lfingers 7.12502
lthumb 13.2249 40.6053
rfemur -30.3456 -1.45473 16.4188
rtibia 24.4447
rfoot -5.12017 -13.268
rtoes 4.12266
lfemur -1.39597 -3.08893 -18.6766
ltibia 25.8876
lfoot -11.1758 -3.8823
ltoes -23.497
530
root -7.5725 18.0156 7.6132 -523.287 -87.713 528.366
lowerback 1.25223 -4.73487 -1.13148
upperback -0.52324 -6.42496 6.03632
thorax -0.417091 -3.27261 6.96429
lowerneck 3.19998 -17.7116 -18.0854
upperneck 16.9708 -30.2473 20.5414
head 10.9861 -14.7506 6.00737
rclavicle 5.10877e-014 -3.65764e-014
rhumerus -19.7933 13.1488 -83.0172
rradius 51.6998
rwrist 9.22357
rhand -12.8849 -19.2465
rfingers 7.12502
rthumb 13.2042 -48.8083
lclavicle 5.10877e-014 -3.65764e-014
lhumerus -19.9714 -14.9463 96.7808
lradius 53.22
lwrist -27.8044
lhand -12.8263 10.9978
lfingers 7.12502
lthumb 13.2606 40.556
rfemur -30.23 -1.22096 16.5587
rtibia 23.9579
rfoot -5.02636 -13.2527
rtoes 4.39323
lfemur -1.18253 -3.13369 -18.4199
ltibia 26.1996
lfoot -10.8618 -4.21732
ltoes -24.0449
531
root -7.71678 18.008 7.57016 -524.187 -87.9035 529.278
lowerback 1.20204 -4.71401 -1.15317
upperback -0.541544 -6.39361 5.95522
thorax -0.419019 -3.25428 6.88713
lowerneck 3.19261 -17.7136 -18.0738
upperneck 16.9502 -30.2178 20.5121
head 10.9655 -14.7386 6.00197
rclavicle 2.62396e-014 3.65764e-014
rhumerus -19.922 12.8946 -82.8645
rradius 51.8017
rwrist 9.19018
rhand -12.9946 -19.3711
rfingers 7.12502
rthumb 13.0984 -48.9397
lclavicle 2.62396e-014 3.65764e-014
lhumerus -20.3009 -14.7491 96.8805
lradius 52.6227
lwrist -27.7494
lhand -12.8128 10.9862
lfingers 7.12502
lthumb 13.2736 40.5435
rfemur -30.1001 -0.9967 16.7239
rtibia 23.5851
rfoot -4.93353 -13.2259
rtoes 4.71312
lfemur -0.998768 -3.17171 -18.1378
ltibia 26.5782
lfoot -10.5064 -4.57196
ltoes -24.5286
532
root -7.86224 17.9992 7.52624 -525.694 -88.0978 530.785
lowerback 1.15736 -4.69008 -1.16027
upperback -0.554481 -6.3584 5.87932
thorax -0.419865 -3.23438 6.80762
lowerneck 3.18474 -17.7148 -18.0609
upperneck 16.9386 -30.1889 20.4777
head 10.9473 -14.7267 5.99463
rclavicle -1.66979e-014 4.77083e-014
rhumerus -20.0671 12.594 -82.692
rradius 51.8482
rwrist 9.1627
rhand -13.1061 -19.5208
rfingers 7.12502
rthumb 12.9909 -49.0964
lclavicle -1.66979e-014 4.77083e-014
lhumerus -20.6337 -14.4676 96.9447
lradius 51.973
lwrist -27.6908
lhand -12.811 11.0096
lfingers 7.12502
lthumb 13.2754 40.5668
rfemur -29.9554 -0.786753 16.9173
rtibia 23.3218
rfoot -4.84328 -13.1827
rtoes 5.08269
lfemur -0.846022 -3.202 -17.8305
ltibia 27.023
lfoot -10.1031 -4.94389
ltoes -24.9541
533
root -8.0088 17.9895 7.48148 -528.116 -88.2938 533.194
lowerback 1.11749 -4.66273 -1.15042
upperback -0.562816 -6.31887 5.80959
thorax -0.420204 -3.21267 6.7254
lowerneck 3.17562 -17.7157 -18.0442
upperneck 16.936 -30.1601 20.4359
head 10.9307 -14.7147 5.98429
rclavicle -1.76918e-014 5.40694e-014
rhumerus -20.2298 12.2505 -82.5009
rradius 51.8404
rwrist 9.14678
rhand -13.2128 -19.7018
rfingers 7.12502
rthumb 12.888 -49.2838
lclavicle -1.76918e-014 5.40694e-014
lhumerus -20.9694 -14.0989 96.972
lradius 51.2714
lwrist -27.6335
lhand -12.8267 11.0666
lfingers 7.12502
lthumb 13.2602 40.6248
rfemur -29.7973 -0.592332 17.1435
rtibia 23.1636
rfoot -4.75687 -13.1209
rtoes 5.49401
lfemur -0.727592 -3.22419 -17.4946
ltibia 27.5352
lfoot -9.64459 -5.33029
ltoes -25.3121
534
root -8.1564 17.9792 7.43594 -531.773 -88.4876 536.826
lowerback 1.08194 -4.63163 -1.12394
upperback -0.565954 -6.27461 5.74563
thorax -0.419176 -3.18896 6.64018
lowerneck 3.16143 -17.7167 -18.0228
upperneck 16.9442 -30.1315 20.385
head 10.9163 -14.7021 5.96984
rclavicle -1.53064e-014 -2.8625e-014
rhumerus -20.4091 11.8672 -82.2916
rradius 51.7782
rwrist 9.14664
rhand -13.3222 -19.8973
rfingers 7.12502
rthumb 12.7826 -49.486
lclavicle -1.53064e-014 -2.8625e-014
lhumerus -21.3055 -13.6426 96.9592
lradius 50.5201
lwrist -27.58
lhand -12.8587 11.1572
lfingers 7.12502
lthumb 13.2294 40.7174
rfemur -29.6255 -0.417341 17.4029
rtibia 23.1046
rfoot -4.67864 -13.0377
rtoes 5.94322
lfemur -0.644737 -3.238 -17.1319
ltibia 28.1135
lfoot -9.11963 -5.72722
ltoes -25.5686
535
root -8.30492 17.9683 7.38971 -537.148 -88.6718 542.165
lowerback 1.05199 -4.5957 -1.08082
upperback -0.564882 -6.22404 5.6868
thorax -0.418731 -3.16237 6.55144
lowerneck 3.14352 -17.7176 -17.9966
upperneck 16.9617 -30.1031 20.3267
head 10.904 -14.6892 5.952
rclavicle 2.40529e-014 -1.43125e-014
rhumerus -20.609 11.447 -82.0653
rradius 51.6675
rwrist 9.16236
rhand -13.4312 -20.1104
rfingers 7.12502
rthumb 12.6775 -49.7056
lclavicle 2.40529e-014 -1.43125e-014
lhumerus -21.6433 -13.0978 96.9047
lradius 49.7223
lwrist -27.5369
lhand -12.9044 11.2848
lfingers 7.12502
lthumb 13.1853 40.8479
rfemur -29.4398 -0.26372 17.6959
rtibia 23.1375
rfoot -4.61106 -12.9316
rtoes 6.42544
lfemur -0.599497 -3.24182 -16.7439
ltibia 28.7575
lfoot -8.52259 -6.13034
ltoes -25.7468
536
root -8.45432 17.9571 7.34289 -544.828 -88.8383 549.798
lowerback 1.02729 -4.556 -1.02309
upperback -0.560016 -6.16863 5.63332
thorax -0.418632 -3.13363 6.46053
lowerneck 3.12205 -17.7172 -17.9679
upperneck 16.9883 -30.073 20.2615
head 10.8935 -14.6751 5.93164
rclavicle -2.38542e-015 6.36111e-015
rhumerus -20.8258 10.9937 -81.8226
rradius 51.5048
rwrist 9.20082
rhand -13.5372 -20.3359
rfingers 7.12502
rthumb 12.5753 -49.9375
lclavicle -2.38542e-015 6.36111e-015
lhumerus -21.9819 -12.4606 96.8059
lradius 48.8817
lwrist -27.4987
lhand -12.9567 11.4467
lfingers 7.12502
lthumb 13.135 41.013
rfemur -29.2398 -0.135168 18.0206
rtibia 23.2572
rfoot -4.56024 -12.8029
rtoes 6.94059
lfemur -0.593251 -3.23567 -16.3338
ltibia 29.4665
lfoot -7.85521 -6.52884
ltoes -25.8132
537
root -8.60449 17.9458 7.29554 -555.452 -88.9714 560.365
lowerback 1.00672 -4.51165 -0.950831
upperback -0.550813 -6.10719 5.58436
thorax -0.417872 -3.10212 6.36644
lowerneck 3.09597 -17.7159 -17.9352
upperneck 17.022 -30.0413 20.1903
head 10.8843 -14.6598 5.90881
rclavicle 4.13472e-014 -2.8625e-014
rhumerus -21.0613 10.5101 -81.5646
rradius 51.2966
rwrist 9.2637
rhand -13.6378 -20.5737
rfingers 7.12502
rthumb 12.4783 -50.1812
lclavicle 4.13472e-014 -2.8625e-014
lhumerus -22.3195 -11.7297 96.6591
lradius 48.0013
lwrist -27.4754
lhand -13.0136 11.6427
lfingers 7.12502
lthumb 13.0801 41.2126
rfemur -29.0243 -0.0304677 18.3752
rtibia 23.4533
rfoot -4.52939 -12.6538
rtoes 7.49002
lfemur -0.627539 -3.2185 -15.9033
ltibia 30.2383
lfoot -7.1171 -6.91456
ltoes -25.7987
538
root -8.75524 17.9345 7.2477 -569.126 -89.05 573.974
lowerback 0.990545 -4.46206 -0.864968
upperback -0.538072 -6.03894 5.54037
thorax -0.417297 -3.06744 6.27026
lowerneck 3.06521 -17.713 -17.8996
upperneck 17.0628 -30.007 20.1142
head 10.8766 -14.6427 5.88413
rclavicle -5.31749e-014 -1.59028e-015
rhumerus -21.3156 10.0009 -81.2919
rradius 51.0463
rwrist 9.35082
rhand -13.732 -20.8275
rfingers 7.12502
rthumb 12.3875 -50.4405
lclavicle -5.31749e-014 -1.59028e-015
lhumerus -22.6578 -10.9048 96.4625
lradius 47.0866
lwrist -27.4741
lhand -13.0752 11.8758
lfingers 7.12502
lthumb 13.0207 41.4495
rfemur -28.795 0.050533 18.7596
rtibia 23.7188
rfoot -4.52121 -12.4858
rtoes 8.0647
lfemur -0.705323 -3.18892 -15.4529
ltibia 31.0725
lfoot -6.31341 -7.28569
ltoes -25.691
539
root -8.90663 17.9235 7.19956 -584.545 -89.0584 589.319
lowerback 0.977644 -4.40787 -0.765209
upperback -0.520861 -5.96473 5.49968
thorax -0.415362 -3.02999 6.16987
lowerneck 3.02839 -17.7085 -17.8595
upperneck 17.1093 -29.9695 20.0331
head 10.8697 -14.6236 5.85743
rclavicle 2.71341e-014 0
rhumerus -21.5888 9.46878 -81.0059
rradius 50.7583
rwrist 9.46274
rhand -13.8208 -21.0849
rfingers 7.12502
rthumb 12.3018 -50.7031
lclavicle 2.71341e-014 0
lhumerus -22.9992 -9.98535 96.2122
lradius 46.1464
lwrist -27.4978
lhand -13.1457 12.1458
lfingers 7.12502
lthumb 12.9527 41.7237
rfemur -28.5465 0.102824 19.1699
rtibia 24.0411
rfoot -4.53813 -12.2984
rtoes 8.66205
lfemur -0.823986 -3.14902 -14.9882
ltibia 31.9644
lfoot -5.44945 -7.63557
ltoes -25.4958
